<svg t="1708943007202" class="icon" viewBox="0 0 1024 1024" version="1.1" xmlns="http://www.w3.org/2000/svg" p-id="5173" width="200" height="200"><path d="M512 917.12m-35.84 0a35.84 35.84 0 1 0 71.68 0 35.84 35.84 0 1 0-71.68 0Z" fill="#5A5A5A" p-id="5174"></path><path d="M645.76 917.12m-35.84 0a35.84 35.84 0 1 0 71.68 0 35.84 35.84 0 1 0-71.68 0Z" fill="#5A5A5A" p-id="5175"></path><path d="M378.24 917.12m-35.84 0a35.84 35.84 0 1 0 71.68 0 35.84 35.84 0 1 0-71.68 0Z" fill="#5A5A5A" p-id="5176"></path><path d="M903.68 94.72H120.32a55.68 55.68 0 0 0-56.32 55.68V768a55.68 55.68 0 0 0 56.32 55.68h783.36A55.68 55.68 0 0 0 960 768V150.4a55.68 55.68 0 0 0-56.32-55.68z m0 669.44H123.52V154.24h776.96z" fill="#5A5A5A" p-id="5177"></path><path d="M340.48 357.76a69.12 69.12 0 1 0-69.76-69.12 71.04 71.04 0 0 0 69.76 69.12zM226.56 698.88h579.2a29.44 29.44 0 0 0 26.24-44.16L673.28 358.4a29.44 29.44 0 0 0-50.56 0L472.32 566.4a30.08 30.08 0 0 1-48.64 0l-56.32-78.08a30.08 30.08 0 0 0-48.64 0l-116.48 163.2a30.08 30.08 0 0 0 24.32 47.36z" fill="#5A5A5A" p-id="5178"></path></svg>